# xmcd
#
# Track frame offsets:
#	182
#	127740
#	193905
#
# Disc length: 3406 seconds
#
# Revision: 1
# Processed by: cddbd v1.4PL0 Copyright (c) Steve Scherf et al.
# Submitted via: CDmax 1.8
#
DISCID=210d4c03
DTITLE=Various Artist - Hooked On Country
DYEAR=1990
DGENRE=Country
TTITLE0=Country Classics
TTITLE1=Way Out West
TTITLE2=Country Love
EXTD=Strange Disc. 50 Songs divided into three CD tracks.
EXTT0=
EXTT1=
EXTT2=
PLAYORDER=
